<svg xmlns="http://www.w3.org/2000/svg" viewBox="0 0 750 500"><g id="freepik--background-complete--inject-248"><path d="M649.84,379.34c-9.87.1-34.82.35-44.36.41l-14.89,0h-.45v-.46l0-18.63v-.5h.5c14.77,0,44.49.14,59.25.27h.24v.23l-.24,18.63Zm0,0-.23-18.63.23.23-29.62.2-29.63.07.5-.5,0,18.63-.46-.46,14.74,0c9.4.07,34.79.32,44.51.42Z" style="fill:#ebebeb"></path><path d="M616.79,402.83c-9.87.1-34.82.35-44.36.41l-14.89,0h-.45v-.45L557,384.2v-.5h.5c14.77,0,44.49.13,59.25.26H617v.23l-.23,18.63Zm0,0-.23-18.63.23.23-29.62.2-29.63.07.5-.5,0,18.63-.46-.46,14.74,0c9.4.07,34.79.32,44.51.42Z" style="fill:#ebebeb"></path><path d="M424.39,402.83c-9.87.1-34.82.35-44.36.41l-14.89,0h-.45v-.45l-.05-18.63v-.5h.5c14.77,0,44.49.13,59.25.26h.24v.23l-.24,18.63Zm0,0-.23-18.63.23.23-29.62.2-29.63.07.5-.5,0,18.63-.46-.46,14.74,0c9.4.07,34.79.32,44.51.42Z" style="fill:#ebebeb"></path><path d="M159.24,379.46c-9.87.1-34.82.35-44.36.42l-14.89,0h-.45v-.46l-.05-18.62v-.5h.5c14.77,0,44.49.13,59.25.26h.24v.24l-.24,18.62Zm0,0L159,360.84l.23.23-29.62.2-29.63.07.5-.5,0,18.62L100,379l14.74,0c9.4.07,34.79.32,44.51.41Z" style="fill:#ebebeb"></path><rect x="66.94" y="384.33" width="59.25" height="18.63" style="fill:#ebebeb"></rect><rect x="623.64" y="384.2" width="59.25" height="18.63" style="fill:#ebebeb"></rect><path d="M682.89,225.05c-9.87.1-34.82.35-44.36.41l-14.89,0h-.45v-.45l-.05-18.63v-.5h.5c14.77,0,44.49.14,59.25.27h.24v.23l-.24,18.63Zm0,0-.23-18.63.23.23-29.62.2-29.63.07.5-.5,0,18.63-.46-.46,14.74,0c9.4.07,34.79.32,44.51.42Z" style="fill:#ebebeb"></path><path d="M533.19,60.55c-9.87.1-34.82.35-44.36.42l-14.89,0h-.45v-.46l-.05-18.63v-.5h.5c14.77,0,44.49.13,59.25.26h.24v.23l-.23,18.63Zm0,0L533,41.92l.23.24-29.62.2-29.63.06.5-.5,0,18.63-.46-.45,14.74,0c9.4.06,34.79.31,44.51.41Z" style="fill:#ebebeb"></path><rect x="440.89" y="65.41" width="59.25" height="18.63" style="fill:#ebebeb"></rect><path d="M566.24,84c-9.87.1-34.82.35-44.36.41L507,84.5h-.45V84l-.05-18.63v-.5h.5c14.77,0,44.49.14,59.25.27h.24v.23L566.24,84Zm0,0L566,65.41l.23.24-29.62.19L507,65.91l.5-.5,0,18.63-.46-.46,14.74,0c9.4.06,34.79.31,44.51.41Z" style="fill:#ebebeb"></path><path d="M125,60.55c-9.87.1-34.82.35-44.36.42L65.76,61h-.45v-.46l0-18.63v-.5h.5c14.77,0,44.49.13,59.25.26h.24v.23L125,60.55Zm0,0-.23-18.63.23.24-29.62.2-29.63.06.5-.5,0,18.63-.46-.45,14.74,0c9.4.06,34.79.31,44.51.41Z" style="fill:#ebebeb"></path></g><g id="freepik--CPU--inject-248"><rect x="65.76" y="95.93" width="115.53" height="319.51" style="fill:#FFC727"></rect><rect x="65.76" y="95.93" width="115.53" height="319.51" style="fill:#fff;opacity:0.7000000000000001"></rect><path d="M165.21,398.51H79.82V112.82h85.39Zm-82.39-3h79.39V115.82H82.82Z" style="fill:#FFC727"></path><rect x="181.3" y="95.93" width="169.51" height="319.51" transform="translate(532.1 511.37) rotate(180)" style="fill:#FFC727"></rect><rect x="181.3" y="95.93" width="169.51" height="319.51" transform="translate(532.1 511.37) rotate(180)" style="fill:#fff;opacity:0.4"></rect><ellipse cx="118.07" cy="350.64" rx="10.28" ry="11.37" style="fill:#263238"></ellipse><path d="M124.37,350.64c0,3.85-2.82,7-6.3,7s-6.29-3.11-6.29-7,2.82-6.95,6.29-6.95S124.37,346.8,124.37,350.64Z" style="fill:#FFC727"></path><rect x="114.93" y="162.24" width="6.29" height="165.85" transform="translate(236.15 490.33) rotate(180)" style="fill:#FFC727"></rect><polygon points="65.76 211.74 65.76 220.42 116.77 270.11 121.22 265.77 114.92 259.63 65.76 211.74" style="fill:#FFC727"></polygon><polygon points="65.76 177.78 65.76 186.46 116.77 236.15 121.22 231.8 114.92 225.66 65.76 177.78" style="fill:#FFC727"></polygon><polygon points="115.35 201.28 119.8 205.62 121.22 204.23 181.3 145.71 181.3 137.04 115.35 201.28" style="fill:#FFC727"></polygon><rect x="75.04" y="415.44" width="97.77" height="11.92" transform="translate(247.85 842.8) rotate(180)" style="fill:#37474f"></rect><rect x="172.81" y="415.44" width="168.37" height="11.92" transform="translate(513.99 842.8) rotate(180)" style="fill:#263238"></rect><rect x="198.43" y="114.32" width="135.23" height="251.59" style="opacity:0.1"></rect><path d="M198.44,114.32V365.91H333.67V114.32Zm6.53,7.06H327.14V358.84H205Z" style="opacity:0.1"></path><g style="opacity:0.2"><rect x="235.27" y="121.38" width="91.87" height="237.46"></rect></g><rect x="282.49" y="126.61" width="38.46" height="58.8" transform="translate(603.45 312.02) rotate(180)" style="opacity:0.30000000000000004"></rect><ellipse cx="301.89" cy="155.76" rx="16.86" ry="25.77" style="opacity:0.1"></ellipse><path d="M301.89,155.76s-2.23-5.95-2.51-9.73,1-11,.35-13S293,132.89,293,143A13.18,13.18,0,0,0,301.89,155.76Z" style="fill:#FFC727"></path><path d="M301.89,155.76s2.25-5.93,4.26-8.19,6.73-4.22,7.51-6-3.28-9-9-4C299.93,141.73,301.06,151.38,301.89,155.76Z" style="fill:#FFC727"></path><path d="M301.89,155.76s4.49,0,6.77,1.54,5.75,6.79,7.17,6.94,3.48-8.86-2.24-13.91C308.86,146.15,304,152.46,301.89,155.76Z" style="fill:#FFC727"></path><path d="M301.89,155.76s2.23,5.94,2.51,9.72-1,11-.34,13,6.75.17,6.75-9.92A13.15,13.15,0,0,0,301.89,155.76Z" style="fill:#FFC727"></path><path d="M301.89,155.76s-2.25,5.92-4.26,8.18-6.72,4.23-7.51,6,3.28,9,9,4C303.85,169.78,302.73,160.13,301.89,155.76Z" style="fill:#FFC727"></path><path d="M301.89,155.76s-4.48,0-6.76-1.55-5.76-6.79-7.18-6.94-3.47,8.87,2.24,13.91C294.93,165.36,299.83,159.05,301.89,155.76Z" style="fill:#FFC727"></path><rect x="282.49" y="192.54" width="38.46" height="58.8" transform="translate(603.45 443.88) rotate(180)" style="opacity:0.30000000000000004"></rect><ellipse cx="301.89" cy="221.68" rx="16.86" ry="25.77" style="opacity:0.1"></ellipse><path d="M301.89,221.68s-2.23-5.94-2.51-9.73,1-11,.35-13-6.76-.18-6.76,9.92A13.17,13.17,0,0,0,301.89,221.68Z" style="fill:#FFC727"></path><path d="M301.89,221.68s2.25-5.93,4.26-8.18,6.73-4.23,7.51-6-3.28-9-9-4C299.93,207.66,301.06,217.31,301.89,221.68Z" style="fill:#FFC727"></path><path d="M301.89,221.68s4.49,0,6.77,1.55,5.75,6.79,7.17,6.93,3.48-8.86-2.24-13.9C308.86,212.08,304,218.39,301.89,221.68Z" style="fill:#FFC727"></path><path d="M301.89,221.68s2.23,5.95,2.51,9.73-1,11-.34,13,6.75.17,6.75-9.92A13.17,13.17,0,0,0,301.89,221.68Z" style="fill:#FFC727"></path><path d="M301.89,221.68s-2.25,5.93-4.26,8.18-6.72,4.23-7.51,6,3.28,9,9,4C303.85,235.71,302.73,226.06,301.89,221.68Z" style="fill:#FFC727"></path><path d="M301.89,221.68s-4.48,0-6.76-1.54-5.76-6.8-7.18-6.94-3.47,8.86,2.24,13.91C294.93,231.29,299.83,225,301.89,221.68Z" style="fill:#FFC727"></path><rect x="212.9" y="147.27" width="44.39" height="21.22" transform="translate(470.18 315.77) rotate(180)" style="fill:#FFC727"></rect><rect x="212.9" y="147.27" width="44.39" height="21.22" transform="translate(470.18 315.77) rotate(180)" style="fill:#fff;opacity:0.4"></rect><rect x="204.97" y="147.27" width="7.93" height="21.22" style="fill:#FFC727"></rect><rect x="204.97" y="147.27" width="7.93" height="21.22" style="fill:#fff;opacity:0.7000000000000001"></rect><rect x="216.15" y="151.22" width="38.17" height="2.99" transform="translate(470.47 305.43) rotate(180)" style="fill:#FFC727"></rect><rect x="216.15" y="157.88" width="38.17" height="2.99" transform="translate(470.47 318.76) rotate(180)" style="fill:#FFC727"></rect><rect x="212.9" y="175.51" width="44.39" height="21.22" transform="translate(470.18 372.24) rotate(180)" style="fill:#FFC727"></rect><rect x="212.9" y="175.51" width="44.39" height="21.22" transform="translate(470.18 372.24) rotate(180)" style="fill:#fff;opacity:0.4"></rect><rect x="204.97" y="175.51" width="7.93" height="21.22" style="fill:#FFC727"></rect><rect x="204.97" y="175.51" width="7.93" height="21.22" style="fill:#fff;opacity:0.7000000000000001"></rect><rect x="216.15" y="179.45" width="38.17" height="2.99" transform="translate(470.47 361.9) rotate(180)" style="fill:#FFC727"></rect><rect x="216.15" y="186.12" width="38.17" height="2.99" transform="translate(470.47 375.23) rotate(180)" style="fill:#FFC727"></rect><rect x="204.75" y="244.39" width="93.95" height="11.13" transform="translate(501.68 -1.77) rotate(90)" style="fill:#FFC727"></rect><rect x="204.75" y="244.39" width="93.95" height="11.13" transform="translate(501.68 -1.77) rotate(90)" style="fill:#fff;opacity:0.4"></rect><rect x="239.77" y="202.98" width="6.38" height="93.95" style="fill:#FFC727"></rect><rect x="239.77" y="202.98" width="6.38" height="93.95" style="fill:#fff;opacity:0.7000000000000001"></rect><rect x="208.4" y="248.28" width="86.39" height="2.99" transform="translate(501.38 -1.82) rotate(90)" style="fill:#FFC727"></rect><rect x="187.34" y="244.39" width="93.95" height="11.13" transform="translate(484.27 15.64) rotate(90)" style="fill:#FFC727"></rect><rect x="187.34" y="244.39" width="93.95" height="11.13" transform="translate(484.27 15.64) rotate(90)" style="fill:#fff;opacity:0.4"></rect><rect x="222.37" y="202.98" width="6.38" height="93.95" style="fill:#FFC727"></rect><rect x="222.37" y="202.98" width="6.38" height="93.95" style="fill:#fff;opacity:0.7000000000000001"></rect><rect x="191" y="248.28" width="86.39" height="2.99" transform="translate(483.97 15.59) rotate(90)" style="fill:#FFC727"></rect><rect x="169.94" y="244.39" width="93.95" height="11.13" transform="translate(466.87 33.04) rotate(90)" style="fill:#FFC727"></rect><rect x="169.94" y="244.39" width="93.95" height="11.13" transform="translate(466.87 33.04) rotate(90)" style="fill:#fff;opacity:0.4"></rect><rect x="204.97" y="202.98" width="6.38" height="93.95" style="fill:#FFC727"></rect><rect x="204.97" y="202.98" width="6.38" height="93.95" style="fill:#fff;opacity:0.7000000000000001"></rect><rect x="173.6" y="248.28" width="86.39" height="2.99" transform="translate(466.57 32.99) rotate(90)" style="fill:#FFC727"></rect><g style="opacity:0.30000000000000004"><polygon points="297.58 114.32 333.67 180.44 333.67 160.92 308.24 114.32 297.58 114.32" style="fill:#fff"></polygon><polygon points="198.44 289.95 198.44 309.47 204.97 321.43 225.38 358.84 229.24 365.91 239.89 365.91 236.03 358.84 204.97 301.92 198.44 289.95" style="fill:#fff"></polygon><polygon points="220.82 114.32 333.67 321.12 333.67 261.87 253.15 114.32 220.82 114.32" style="fill:#fff"></polygon><polygon points="198.44 210.72 198.44 269.97 204.97 281.94 246.93 358.84 250.79 365.91 283.13 365.91 279.27 358.84 204.97 222.68 198.44 210.72" style="fill:#fff"></polygon><polygon points="208.61 114.32 333.67 343.5 333.67 337.3 211.99 114.32 208.61 114.32" style="fill:#fff"></polygon><polygon points="198.44 335.01 198.44 341.24 204.97 353.21 208.04 358.84 211.9 365.91 215.3 365.91 211.44 358.84 204.97 346.98 198.44 335.01" style="fill:#fff"></polygon></g></g><g id="freepik--Monitor--inject-248"><rect x="252.32" y="81.53" width="421.52" height="271.49" style="fill:#263238"></rect><rect x="270.97" y="100.25" width="384.15" height="232.04" style="fill:#37474f"></rect><g style="opacity:0.5"><polygon points="333.44 100.25 270.97 161.24 270.97 143.24 315 100.25 333.44 100.25" style="fill:#455a64"></polygon><polygon points="655.12 156.01 655.12 174.01 492.98 332.29 474.55 332.29 655.12 156.01" style="fill:#455a64"></polygon><polygon points="466.34 100.25 270.97 290.99 270.97 236.34 410.37 100.25 466.34 100.25" style="fill:#455a64"></polygon><polygon points="655.12 186.12 655.12 240.76 561.37 332.29 505.39 332.29 655.12 186.12" style="fill:#455a64"></polygon><polygon points="487.48 100.25 270.97 311.62 270.97 305.91 481.63 100.25 487.48 100.25" style="fill:#455a64"></polygon><polygon points="655.12 288.56 655.12 294.3 616.2 332.29 610.33 332.29 655.12 288.56" style="fill:#455a64"></polygon></g><path d="M470.72,420.66V386a7.65,7.65,0,1,0-15.28,0v34.65H424.71L434.12,353h57.93l9.41,67.64Z" style="fill:#FFC727"></path><path d="M470.72,420.66V386a7.65,7.65,0,1,0-15.28,0v34.65H424.71L434.12,353h57.93l9.41,67.64Z" style="fill:#fff;opacity:0.7000000000000001"></path><polygon points="434.12 353.02 432.21 366.74 493.1 360.61 492.05 353.02 434.12 353.02" style="fill:#FFC727;opacity:0.30000000000000004"></polygon><polygon points="588.36 427.46 337.81 427.46 337.81 418.25 463.08 408.44 588.36 418.25 588.36 427.46" style="fill:#FFC727"></polygon><polygon points="588.36 427.46 337.81 427.46 337.81 418.25 463.08 408.44 588.36 418.25 588.36 427.46" style="fill:#fff;opacity:0.5"></polygon></g><g id="freepik--Headphones--inject-248"><polygon points="283.52 266.83 289.05 266.83 289.05 247.99 286.05 247.99 286.05 263.83 283.52 263.83 283.52 266.83" style="fill:#FFC727"></polygon><path d="M229.12,331s-.72-33.39,9.86-51.31c11.78-19.95,48-23.77,63.85-13.18,0,0-26.14-12.06-50.75,15.24-10.37,11.5-11.88,50.64-11.88,50.64Z" style="fill:#c7c7c7"></path><path d="M325.11,338.57s6.07-32.85-1.5-52.24c-8.43-21.58-43-31.22-60.34-23.31,0,0,27.16-7.64,47.08,23.25,8.39,13,3.61,51.89,3.61,51.89Z" style="fill:#dbdbdb"></path><path d="M292.16,351.69c-2.13,16.84,8.12,32,22.9,33.89s28.49-10.27,30.62-27.12-8.12-32-22.9-33.89S294.29,334.84,292.16,351.69Z" style="fill:#dbdbdb"></path><path d="M206.3,344.75c-1.92,15.14,7.29,28.78,20.58,30.47s25.61-9.24,27.53-24.38-7.3-28.78-20.59-30.46S208.21,329.61,206.3,344.75Z" style="fill:#FFC727"></path><ellipse cx="235.56" cy="348.66" rx="30.75" ry="26.98" transform="translate(-139.92 538.56) rotate(-82.78)" style="fill:#dbdbdb"></ellipse><path d="M226.15,347.37c-1.06,8.34,3.35,15.77,9.83,16.59s12.61-5.27,13.66-13.61-3.35-15.77-9.83-16.59S227.21,339,226.15,347.37Z" style="fill:#c7c7c7"></path><path d="M300.08,351.72c-1.92,15.14,7.3,28.78,20.58,30.46s25.61-9.23,27.53-24.37-7.3-28.79-20.58-30.47S302,336.57,300.08,351.72Z" style="fill:#FFC727"></path><path d="M313.14,353.65c-1.18,9.31,4.48,17.69,12.65,18.72s15.74-5.67,16.91-15-4.48-17.68-12.64-18.72S314.32,344.34,313.14,353.65Z" style="opacity:0.2"></path><polygon points="267.76 266.83 283.52 266.83 283.52 263.83 270.76 263.83 270.76 247.99 267.76 247.99 267.76 266.83" style="fill:#FFC727"></polygon><rect x="250.34" y="424.37" width="56.87" height="3.21" transform="translate(557.55 851.95) rotate(180)" style="fill:#FFC727"></rect><rect x="273.63" y="265.33" width="10.3" height="159.04" transform="translate(557.55 689.7) rotate(180)" style="fill:#FFC727"></rect><polygon points="283.93 424.37 283.93 420.66 273.63 422.52 273.63 424.37 283.93 424.37" style="opacity:0.1"></polygon></g><g id="freepik--Table--inject-248"><path d="M65.76,427.36c198.12-.61,420.36-.61,618.48,0-198.12.62-420.36.61-618.48,0Z" style="fill:#263238"></path></g><g id="freepik--Keyboard--inject-248"><polygon points="336.73 422.77 584.48 422.77 597.56 461.58 327.76 461.58 336.73 422.77" style="fill:#ebebeb"></polygon><polygon points="336.73 422.77 584.48 422.77 597.56 461.58 327.76 461.58 336.73 422.77" style="fill:#FFC727"></polygon><polygon points="336.73 422.77 584.48 422.77 597.56 461.58 327.76 461.58 336.73 422.77" style="fill:#fff;opacity:0.7000000000000001"></polygon><polygon points="338.25 434.97 361.69 434.97 360.67 438.84 337.35 438.84 338.25 434.97" style="fill:#fff"></polygon><polygon points="363.78 434.97 378.7 434.97 378.19 438.84 362.76 438.84 363.78 434.97" style="fill:#fff"></polygon><polygon points="380.76 434.97 396.4 434.97 396.1 438.84 380.22 438.84 380.76 434.97" style="fill:#FFC727"></polygon><polygon points="398.43 434.97 413.8 434.97 413.7 438.84 398.16 438.84 398.43 434.97" style="fill:#fff"></polygon><polygon points="430.95 434.97 431.19 438.84 415.74 438.84 415.83 434.97 430.95 434.97" style="fill:#fff"></polygon><polygon points="448.59 434.97 448.83 438.84 433.26 438.84 433.02 434.97 448.59 434.97" style="fill:#fff"></polygon><polygon points="465.81 434.97 466.05 438.84 450.86 438.84 450.63 434.97 465.81 434.97" style="fill:#fff"></polygon><polygon points="483.48 434.97 484.05 438.84 468.08 438.84 467.85 434.97 483.48 434.97" style="fill:#fff"></polygon><polygon points="501.15 434.97 501.69 438.84 486.11 438.84 485.54 434.97 501.15 434.97" style="fill:#fff"></polygon><polygon points="519.09 434.97 519.62 438.84 503.75 438.84 503.21 434.97 519.09 434.97" style="fill:#fff"></polygon><polygon points="535.89 434.97 536.42 438.84 521.69 438.84 521.15 434.97 535.89 434.97" style="fill:#fff"></polygon><polygon points="554.24 434.97 554.78 438.84 538.49 438.84 537.92 434.97 554.24 434.97" style="fill:#fff"></polygon><polygon points="571.82 434.97 572.39 438.84 556.84 438.84 556.27 434.97 571.82 434.97" style="fill:#fff"></polygon><polygon points="585.63 438.84 574.42 438.84 573.88 434.97 584.32 434.97 585.63 438.84" style="fill:#fff"></polygon><polygon points="334.42 451.5 349.64 451.5 348.38 457.71 332.99 457.71 334.42 451.5" style="fill:#fff"></polygon><polygon points="351.73 451.5 367.01 451.5 366.17 457.71 350.45 457.71 351.73 451.5" style="fill:#fff"></polygon><polygon points="369.07 451.5 385.15 451.5 384.32 457.71 368.2 457.71 369.07 451.57 369.07 451.5" style="fill:#fff"></polygon><polygon points="387.22 451.5 407.25 451.5 406.8 457.71 386.35 457.71 387.22 451.57 387.22 451.5" style="fill:#fff"></polygon><polygon points="496.19 451.57 497.05 457.71 408.86 457.71 409.31 451.5 496.19 451.5 496.19 451.57" style="fill:#FFC727"></polygon><polygon points="519.62 451.57 520.49 457.71 499.12 457.71 498.25 451.5 519.62 451.5 519.62 451.57" style="fill:#fff"></polygon><polygon points="537.56 451.57 538.43 457.71 522.55 457.71 521.69 451.5 537.56 451.5 537.56 451.57" style="fill:#FFC727"></polygon><polygon points="556.3 451.57 557.17 457.71 540.49 457.71 539.62 451.5 556.3 451.5 556.3 451.57" style="fill:#FFC727"></polygon><polygon points="574.39 451.57 575.26 457.71 559.23 457.71 558.34 451.5 574.39 451.5 574.39 451.57" style="fill:#FFC727"></polygon><polygon points="592 457.71 577.32 457.71 576.42 451.5 589.91 451.5 592 457.71" style="fill:#fff"></polygon><polygon points="335.77 445.67 372.66 445.67 372 450.33 334.69 450.33 335.77 445.67" style="fill:#fff"></polygon><polygon points="391.28 445.67 390.66 450.33 374.03 450.33 374.69 445.67 391.28 445.67" style="fill:#fff"></polygon><polygon points="407.96 445.67 407.64 450.33 392.69 450.33 393.35 445.67 407.96 445.67" style="fill:#fff"></polygon><polygon points="425.3 445.67 425.21 450.33 409.7 450.33 410.03 445.67 425.3 445.67" style="fill:#fff"></polygon><polygon points="443.75 450.33 427.25 450.33 427.34 445.67 443.45 445.67 443.75 450.33" style="fill:#fff"></polygon><polygon points="461.6 450.33 445.78 450.33 445.48 445.67 461.3 445.67 461.6 450.33" style="fill:#fff"></polygon><polygon points="479.41 450.33 463.63 450.33 463.33 445.67 479.12 445.67 479.41 450.33" style="fill:#fff"></polygon><polygon points="497.56 450.33 481.45 450.33 481.15 445.67 496.9 445.67 497.56 450.33" style="fill:#fff"></polygon><polygon points="515.41 450.33 499.62 450.33 498.96 445.67 514.75 445.67 515.41 450.33" style="fill:#fff"></polygon><polygon points="532.78 450.33 517.44 450.33 516.78 445.67 532.12 445.67 532.12 445.74 532.78 450.33" style="fill:#fff"></polygon><polygon points="550.33 450.33 534.84 450.33 534.18 445.67 549.67 445.67 550.33 450.33" style="fill:#FFC727"></polygon><polygon points="571.7 450.33 552.39 450.33 551.73 445.67 571.04 445.67 571.7 450.33" style="fill:#fff"></polygon><polygon points="589.49 450.33 573.73 450.33 573.08 445.67 587.93 445.67 589.49 450.33" style="fill:#fff"></polygon><polygon points="337.11 439.84 365.13 439.84 363.93 444.5 336.04 444.5 337.11 439.84" style="fill:#fff"></polygon><polygon points="367.22 439.84 382.76 439.84 382.11 444.5 366.02 444.5 367.22 439.84" style="fill:#FFC727"></polygon><polygon points="384.83 439.84 400.76 439.84 400.4 444.5 384.17 444.5 384.83 439.84" style="fill:#FFC727"></polygon><polygon points="402.79 439.84 418.49 439.84 418.4 444.5 402.46 444.5 402.79 439.84" style="fill:#FFC727"></polygon><polygon points="435.38 439.84 435.68 444.5 420.43 444.5 420.52 439.84 435.38 439.84" style="fill:#fff"></polygon><polygon points="453.26 439.84 453.56 444.5 437.71 444.5 437.44 439.84 453.26 439.84" style="fill:#fff"></polygon><polygon points="470.44 439.84 470.75 444.5 455.59 444.5 455.32 439.84 470.44 439.84" style="fill:#fff"></polygon><polygon points="488.59 439.84 489.28 444.5 472.81 444.5 472.51 439.84 488.59 439.84" style="fill:#fff"></polygon><polygon points="505.93 439.84 506.59 444.5 491.34 444.5 490.65 439.84 505.93 439.84" style="fill:#fff"></polygon><polygon points="524.05 439.84 524.71 444.5 508.62 444.5 507.96 439.84 524.05 439.84" style="fill:#fff"></polygon><polygon points="541.42 439.84 542.07 444.5 526.77 444.5 526.11 439.84 541.42 439.84" style="fill:#fff"></polygon><polygon points="558.76 439.84 559.44 444.5 544.11 444.5 543.45 439.84 558.76 439.84" style="fill:#fff"></polygon><polygon points="587.54 444.5 561.48 444.5 560.82 439.84 585.96 439.84 587.54 444.5" style="fill:#fff"></polygon><polygon points="339.36 430.1 353.62 430.1 352.6 433.97 338.46 433.97 339.36 430.1" style="fill:#fff"></polygon><polygon points="355.68 430.1 371.49 430.1 370.93 433.97 354.66 433.97 355.68 430.1" style="fill:#fff"></polygon><polygon points="373.56 430.1 388.74 430.1 388.47 433.97 372.99 433.97 373.56 430.1" style="fill:#fff"></polygon><polygon points="390.81 430.1 406.05 430.1 405.99 433.97 390.54 433.97 390.81 430.1" style="fill:#fff"></polygon><polygon points="423.12 430.1 423.36 433.97 408.02 433.97 408.12 430.1 423.12 430.1" style="fill:#fff"></polygon><polygon points="440.46 430.1 440.7 433.97 425.42 433.97 425.19 430.1 440.46 430.1" style="fill:#fff"></polygon><polygon points="457.65 430.1 457.89 433.97 442.76 433.97 442.52 430.1 457.65 430.1" style="fill:#fff"></polygon><polygon points="475.14 430.1 475.68 433.97 459.95 433.97 459.71 430.1 475.14 430.1" style="fill:#fff"></polygon><polygon points="492.6 430.1 493.14 433.97 477.74 433.97 477.2 430.1 492.6 430.1" style="fill:#fff"></polygon><polygon points="510.18 430.1 510.71 433.97 495.2 433.97 494.66 430.1 510.18 430.1" style="fill:#fff"></polygon><polygon points="527.61 430.1 528.17 433.97 512.78 433.97 512.21 430.1 527.61 430.1" style="fill:#fff"></polygon><polygon points="544.85 430.1 545.42 433.97 530.24 433.97 529.67 430.1 544.85 430.1" style="fill:#fff"></polygon><polygon points="562.67 430.1 563.24 433.97 547.46 433.97 546.92 430.1 562.67 430.1" style="fill:#fff"></polygon><polygon points="583.99 433.97 565.27 433.97 564.73 430.1 582.67 430.1 583.99 433.97" style="fill:#fff"></polygon><polygon points="340.49 425.2 355.26 425.2 354.21 429.1 339.6 429.1 340.49 425.2" style="fill:#fff"></polygon><polygon points="357.35 425.2 373.35 425.2 372.81 429.1 356.31 429.1 357.35 425.2" style="fill:#fff"></polygon><polygon points="375.41 425.2 390.69 425.2 390.39 429.1 374.87 429.1 375.41 425.2" style="fill:#fff"></polygon><polygon points="392.72 425.2 408.86 425.2 408.77 429.1 392.45 429.1 392.72 425.2" style="fill:#fff"></polygon><polygon points="425.69 425.2 425.93 429.1 410.81 429.1 410.89 425.2 425.69 425.2" style="fill:#fff"></polygon><polygon points="444.38 425.2 444.62 429.1 428 429.1 427.73 425.2 444.38 425.2" style="fill:#fff"></polygon><polygon points="462.28 425.2 462.52 429.1 446.68 429.1 446.41 425.2 462.28 425.2" style="fill:#fff"></polygon><polygon points="479.74 425.2 480.31 429.1 464.56 429.1 464.32 425.2 479.74 425.2" style="fill:#fff"></polygon><polygon points="497.77 425.2 498.34 429.1 482.37 429.1 481.81 425.2 497.77 425.2" style="fill:#fff"></polygon><polygon points="515.53 425.2 516.1 429.1 500.4 429.1 499.83 425.2 515.53 425.2" style="fill:#fff"></polygon><polygon points="533.64 425.2 534.21 429.1 518.16 429.1 517.59 425.2 533.64 425.2" style="fill:#fff"></polygon><polygon points="551.4 425.2 551.97 429.1 536.27 429.1 535.71 425.2 551.4 425.2" style="fill:#fff"></polygon><polygon points="569.52 425.2 570.09 429.1 554.03 429.1 553.46 425.2 569.52 425.2" style="fill:#fff"></polygon><polygon points="582.34 429.1 572.15 429.1 571.58 425.2 581.03 425.2 582.34 429.1" style="fill:#fff"></polygon><rect x="327.76" y="461.58" width="269.8" height="5.08" style="fill:#FFC727"></rect><rect x="327.76" y="461.58" width="269.8" height="5.08" style="fill:#fff;opacity:0.5"></rect></g><g id="freepik--Mouse--inject-248"><path d="M597.56,427.28s18.19,24.46,48.49,36.48,27.09-25.16,27.09-25.16-38.9-24.37-75.58-11.32" style="fill:#b3b3b3"></path><path d="M597.56,427.28s18.19,24.46,48.49,36.48,27.09-25.16,27.09-25.16-38.9-24.37-75.58-11.32" style="fill:#FFC727"></path><path d="M597.56,427.28s18.19,24.46,48.49,36.48,27.09-25.16,27.09-25.16-38.9-24.37-75.58-11.32" style="fill:#fff;opacity:0.5"></path><path d="M597.56,427.28c1.72-2,8.37-7.39,22.4-10.34s32.51-5.93,54.41,8.37c23.88,15.59,23.8,27.08,15.68,34.47s-36.6,13.29-49.41,0-17.48-20.44-25.11-25.85S597.56,427.28,597.56,427.28Z" style="fill:#FFC727"></path><path d="M597.56,427.28c1.72-2,8.37-7.39,22.4-10.34s32.51-5.93,54.41,8.37c23.88,15.59,23.8,27.08,15.68,34.47s-36.6,13.29-49.41,0-17.48-20.44-25.11-25.85S597.56,427.28,597.56,427.28Z" style="fill:#fff;opacity:0.7000000000000001"></path><path d="M680.81,448.47c-6.67,5.85-27.4,10.52-37.91,0s-17-16.18-23.26-20.47c-4.26-2.92-11.34-4.7-15.44-5.53A57.92,57.92,0,0,1,620,416.94c13.47-2.83,31-5.69,51.79,6.74C687.51,434.76,687,443,680.81,448.47Z" style="fill:#fff;opacity:0.7000000000000001"></path><path d="M608.48,420.42c-.61.74,9.94,3.43,16,5.6s10.37.82,15,2.54,15.21,11.84,21.79,16c4,2.51,15.33,3.79,16.43,3.19s.37-7-1.85-10.74-16.25-14.07-17.35-14.77-2.83-3.36-4.71-4.93-11.7-3.69-16.62-3.69S612.38,415.65,608.48,420.42Z" style="fill:#FFC727"></path><path d="M626,414.6a10.06,10.06,0,0,1,4.22-2.31,14.27,14.27,0,0,1,9.16,1.33c3.19,1.52,4.62,6.31,4.62,6.31s-6.84-3.11-10-3.79S626,414.6,626,414.6Z" style="fill:#FFC727"></path><path d="M626,414.6a10.06,10.06,0,0,1,4.22-2.31,14.27,14.27,0,0,1,9.16,1.33c3.19,1.52,4.62,6.31,4.62,6.31s-6.84-3.11-10-3.79S626,414.6,626,414.6Z" style="opacity:0.30000000000000004"></path></g></svg>
